<svg width="15" height="17" viewBox="0 0 15 17" fill="none" xmlns="http://www.w3.org/2000/svg">
<path d="M15 5.899C14.9902 5.82091 14.9714 5.74399 14.9438 5.6695V5.593C14.8987 5.5056 14.8385 5.42527 14.7656 5.355L9.14062 0.255C9.06313 0.188884 8.97452 0.134369 8.87813 0.0934999H8.79375L8.49375 0H2.8125C2.06658 0 1.35121 0.26866 0.823762 0.746878C0.296316 1.2251 0 1.8737 0 2.55V14.45C0 15.1263 0.296316 15.7749 0.823762 16.2531C1.35121 16.7313 2.06658 17 2.8125 17H12.1875C12.9334 17 13.6488 16.7313 14.1762 16.2531C14.7037 15.7749 15 15.1263 15 14.45V5.95C15 5.95 15 5.95 15 5.899ZM9.375 2.8985L11.8031 5.1H9.375V2.8985ZM13.125 14.45C13.125 14.6754 13.0262 14.8916 12.8504 15.051C12.6746 15.2104 12.4361 15.3 12.1875 15.3H2.8125C2.56386 15.3 2.3254 15.2104 2.14959 15.051C1.97377 14.8916 1.875 14.6754 1.875 14.45V2.55C1.875 2.32457 1.97377 2.10837 2.14959 1.94896C2.3254 1.78955 2.56386 1.7 2.8125 1.7H7.5V5.95C7.5 6.17543 7.59877 6.39163 7.77459 6.55104C7.9504 6.71045 8.18886 6.8 8.4375 6.8H13.125V14.45Z" fill="black"/>
</svg>
