<svg width="21" height="24" viewBox="0 0 21 24" fill="none" xmlns="http://www.w3.org/2000/svg">
<path d="M20.6327 5.31592C20.6349 7.48717 18.8705 9.25525 16.6993 9.25751C14.528 9.25976 12.7599 7.49534 12.7577 5.32409C12.7554 3.15284 14.5198 1.38476 16.6911 1.38251C18.8623 1.38026 20.6304 3.14468 20.6327 5.31592ZM18.3888 11.2695C17.8265 11.4163 17.2641 11.5069 16.7016 11.5075C15.0615 11.5062 13.4887 10.855 12.3278 9.69648C11.1668 8.53794 10.5124 6.96653 10.5077 5.32642C10.506 3.67267 11.1569 2.17575 12.1908 1.06092C11.9863 0.810869 11.7287 0.609569 11.4366 0.471693C11.1446 0.333816 10.8254 0.262836 10.5024 0.263924C9.26494 0.265207 8.25349 1.27876 8.25477 2.51626L8.25511 2.8425C4.91489 3.83597 2.63432 6.90958 2.63794 10.3971L2.64493 17.1471L0.397267 19.3994L0.398434 20.5244L20.6484 20.5034L20.6473 19.3784L18.3949 17.1308L18.3888 11.2695ZM10.5269 23.8889C11.7757 23.8876 12.7759 22.8853 12.7746 21.6366L8.2746 21.6412C8.27521 22.238 8.51286 22.81 8.93525 23.2316C9.35765 23.6531 9.93019 23.8895 10.5269 23.8889Z" fill="#0A0A0A"/>
</svg>
