<svg width="19" height="19" viewBox="0 0 19 19" fill="none" xmlns="http://www.w3.org/2000/svg">
<path fill-rule="evenodd" clip-rule="evenodd" d="M16.4102 8.60805H16.4124C16.8185 8.60805 17.1486 8.93676 17.1494 9.34285C17.1553 11.3114 16.3939 13.165 15.0054 14.5609C13.6176 15.9568 11.7692 16.7284 9.80067 16.7343H9.7793C7.81812 16.7343 5.97339 15.9737 4.58265 14.5904C3.18676 13.2026 2.41511 11.3541 2.40921 9.3856C2.40332 7.41631 3.16465 5.56347 4.55317 4.16758C5.94096 2.77168 7.78938 2.00004 9.75792 1.99414C10.3438 2.00298 10.9408 2.06195 11.5127 2.19903C11.9078 2.29484 12.1517 2.69282 12.0559 3.0886C11.9608 3.48363 11.5606 3.72685 11.1671 3.63251C10.7094 3.52196 10.2237 3.47553 9.76235 3.46816C8.18736 3.47258 6.70818 4.09019 5.59825 5.20676C4.48758 6.32333 3.87881 7.80619 3.88323 9.38118C3.88765 10.9562 4.50527 12.4346 5.62183 13.5453C6.73472 14.6515 8.21021 15.2603 9.7793 15.2603H9.79625C11.3712 15.2559 12.8504 14.6383 13.9603 13.5217C15.071 12.4044 15.6798 10.9223 15.6754 9.34727C15.6746 8.94044 16.0033 8.60879 16.4102 8.60805ZM7.0473 8.84299C7.33547 8.55481 7.80126 8.55481 8.08943 8.84299L9.74328 10.4968L14.3842 5.19332C14.6525 4.88894 15.1175 4.85651 15.4241 5.12478C15.73 5.39231 15.761 5.8581 15.4927 6.1647L10.3336 12.0608C10.1995 12.2141 10.0079 12.3047 9.80372 12.3121H9.77939C9.58409 12.3121 9.39689 12.2347 9.25833 12.0961L7.0473 9.88512C6.75913 9.59694 6.75913 9.13116 7.0473 8.84299Z" fill="#C5CEE0"/>
<mask id="mask0_449_182" style="mask-type:alpha" maskUnits="userSpaceOnUse" x="2" y="1" width="16" height="16">
<path fill-rule="evenodd" clip-rule="evenodd" d="M16.4102 8.60805H16.4124C16.8185 8.60805 17.1486 8.93676 17.1494 9.34285C17.1553 11.3114 16.3939 13.165 15.0054 14.5609C13.6176 15.9568 11.7692 16.7284 9.80067 16.7343H9.7793C7.81812 16.7343 5.97339 15.9737 4.58265 14.5904C3.18676 13.2026 2.41511 11.3541 2.40921 9.3856C2.40332 7.41631 3.16465 5.56347 4.55317 4.16758C5.94096 2.77168 7.78938 2.00004 9.75792 1.99414C10.3438 2.00298 10.9408 2.06195 11.5127 2.19903C11.9078 2.29484 12.1517 2.69282 12.0559 3.0886C11.9608 3.48363 11.5606 3.72685 11.1671 3.63251C10.7094 3.52196 10.2237 3.47553 9.76235 3.46816C8.18736 3.47258 6.70818 4.09019 5.59825 5.20676C4.48758 6.32333 3.87881 7.80619 3.88323 9.38118C3.88765 10.9562 4.50527 12.4346 5.62183 13.5453C6.73472 14.6515 8.21021 15.2603 9.7793 15.2603H9.79625C11.3712 15.2559 12.8504 14.6383 13.9603 13.5217C15.071 12.4044 15.6798 10.9223 15.6754 9.34727C15.6746 8.94044 16.0033 8.60879 16.4102 8.60805ZM7.0473 8.84299C7.33547 8.55481 7.80126 8.55481 8.08943 8.84299L9.74328 10.4968L14.3842 5.19332C14.6525 4.88894 15.1175 4.85651 15.4241 5.12478C15.73 5.39231 15.761 5.8581 15.4927 6.1647L10.3336 12.0608C10.1995 12.2141 10.0079 12.3047 9.80372 12.3121H9.77939C9.58409 12.3121 9.39689 12.2347 9.25833 12.0961L7.0473 9.88512C6.75913 9.59694 6.75913 9.13116 7.0473 8.84299Z" fill="white"/>
</mask>
<g mask="url(#mask0_449_182)">
</g>
</svg>
