<svg width="18" height="19" viewBox="0 0 18 19" fill="none" xmlns="http://www.w3.org/2000/svg">
<path fill-rule="evenodd" clip-rule="evenodd" d="M7.6819 12.3119C7.6819 12.7173 7.35025 13.0489 6.94489 13.0489C6.53954 13.0489 6.20789 12.7173 6.20789 12.3119V9.36389C6.20789 8.95854 6.53954 8.62688 6.94489 8.62688C7.35025 8.62688 7.6819 8.95854 7.6819 9.36389V12.3119ZM12.1038 12.312C12.1038 12.7173 11.7722 13.049 11.3668 13.049C10.9614 13.049 10.6298 12.7173 10.6298 12.312V9.36394C10.6298 8.95859 10.9614 8.62693 11.3668 8.62693C11.7722 8.62693 12.1038 8.95859 12.1038 9.36394V12.312ZM13.578 14.523C13.578 14.9291 13.2478 15.26 12.841 15.26H5.47093C5.0641 15.26 4.73392 14.9291 4.73392 14.523V6.41587H13.578V14.523ZM7.68173 3.70955C7.68173 3.59531 7.83945 3.46781 8.05024 3.46781H10.2613C10.472 3.46781 10.6298 3.59531 10.6298 3.70955V4.94183H7.68173V3.70955ZM15.789 4.94193H15.052H12.104V3.70965C12.104 2.76333 11.2778 1.9939 10.2615 1.9939H8.05046C7.03413 1.9939 6.20794 2.76333 6.20794 3.70965V4.94193H3.25991H2.5229C2.11754 4.94193 1.78589 5.27358 1.78589 5.67894C1.78589 6.08429 2.11754 6.41595 2.5229 6.41595H3.25991V14.523C3.25991 15.7421 4.25192 16.7341 5.47093 16.7341H12.841C14.06 16.7341 15.052 15.7421 15.052 14.523V6.41595H15.789C16.1944 6.41595 16.5261 6.08429 16.5261 5.67894C16.5261 5.27358 16.1944 4.94193 15.789 4.94193Z" fill="#C5CEE0"/>
<mask id="mask0_449_189" style="mask-type:alpha" maskUnits="userSpaceOnUse" x="1" y="1" width="16" height="16">
<path fill-rule="evenodd" clip-rule="evenodd" d="M7.6819 12.3119C7.6819 12.7173 7.35025 13.0489 6.94489 13.0489C6.53954 13.0489 6.20789 12.7173 6.20789 12.3119V9.36389C6.20789 8.95854 6.53954 8.62688 6.94489 8.62688C7.35025 8.62688 7.6819 8.95854 7.6819 9.36389V12.3119ZM12.1038 12.312C12.1038 12.7173 11.7722 13.049 11.3668 13.049C10.9614 13.049 10.6298 12.7173 10.6298 12.312V9.36394C10.6298 8.95859 10.9614 8.62693 11.3668 8.62693C11.7722 8.62693 12.1038 8.95859 12.1038 9.36394V12.312ZM13.578 14.523C13.578 14.9291 13.2478 15.26 12.841 15.26H5.47093C5.0641 15.26 4.73392 14.9291 4.73392 14.523V6.41587H13.578V14.523ZM7.68173 3.70955C7.68173 3.59531 7.83945 3.46781 8.05024 3.46781H10.2613C10.472 3.46781 10.6298 3.59531 10.6298 3.70955V4.94183H7.68173V3.70955ZM15.789 4.94193H15.052H12.104V3.70965C12.104 2.76333 11.2778 1.9939 10.2615 1.9939H8.05046C7.03413 1.9939 6.20794 2.76333 6.20794 3.70965V4.94193H3.25991H2.5229C2.11754 4.94193 1.78589 5.27358 1.78589 5.67894C1.78589 6.08429 2.11754 6.41595 2.5229 6.41595H3.25991V14.523C3.25991 15.7421 4.25192 16.7341 5.47093 16.7341H12.841C14.06 16.7341 15.052 15.7421 15.052 14.523V6.41595H15.789C16.1944 6.41595 16.5261 6.08429 16.5261 5.67894C16.5261 5.27358 16.1944 4.94193 15.789 4.94193Z" fill="white"/>
</mask>
<g mask="url(#mask0_449_189)">
</g>
</svg>
