<svg width="12" height="12" viewBox="0 0 12 12" fill="none" xmlns="http://www.w3.org/2000/svg">
<path d="M0.6 1.2H11.4C11.5591 1.2 11.7117 1.13679 11.8243 1.02426C11.9368 0.911742 12 0.75913 12 0.6C12 0.44087 11.9368 0.288258 11.8243 0.175736C11.7117 0.0632141 11.5591 0 11.4 0H0.6C0.44087 0 0.288258 0.0632141 0.175736 0.175736C0.0632141 0.288258 0 0.44087 0 0.6C0 0.75913 0.0632141 0.911742 0.175736 1.02426C0.288258 1.13679 0.44087 1.2 0.6 1.2ZM4.2 6H0.6C0.44087 6 0.288258 6.06321 0.175736 6.17574C0.0632141 6.28826 0 6.44087 0 6.6C0 6.75913 0.0632141 6.91174 0.175736 7.02426C0.288258 7.13679 0.44087 7.2 0.6 7.2H4.2C4.35913 7.2 4.51174 7.13679 4.62426 7.02426C4.73679 6.91174 4.8 6.75913 4.8 6.6C4.8 6.44087 4.73679 6.28826 4.62426 6.17574C4.51174 6.06321 4.35913 6 4.2 6ZM5.4 3H0.6C0.44087 3 0.288258 3.06321 0.175736 3.17574C0.0632141 3.28826 0 3.44087 0 3.6C0 3.75913 0.0632141 3.91174 0.175736 4.02426C0.288258 4.13679 0.44087 4.2 0.6 4.2H5.4C5.55913 4.2 5.71174 4.13679 5.82426 4.02426C5.93679 3.91174 6 3.75913 6 3.6C6 3.44087 5.93679 3.28826 5.82426 3.17574C5.71174 3.06321 5.55913 3 5.4 3ZM9.426 3.174C9.37022 3.11776 9.30386 3.07313 9.23075 3.04267C9.15763 3.0122 9.07921 2.99652 9 2.99652C8.92079 2.99652 8.84237 3.0122 8.76925 3.04267C8.69614 3.07313 8.62978 3.11776 8.574 3.174L6.174 5.574C6.06102 5.68698 5.99754 5.84022 5.99754 6C5.99754 6.15978 6.06102 6.31302 6.174 6.426C6.28698 6.53898 6.44022 6.60246 6.6 6.60246C6.75978 6.60246 6.91302 6.53898 7.026 6.426L8.4 5.046V11.4C8.4 11.5591 8.46321 11.7117 8.57574 11.8243C8.68826 11.9368 8.84087 12 9 12C9.15913 12 9.31174 11.9368 9.42426 11.8243C9.53679 11.7117 9.6 11.5591 9.6 11.4V5.046L10.974 6.426C11.0298 6.48224 11.0961 6.52687 11.1693 6.55733C11.2424 6.5878 11.3208 6.60348 11.4 6.60348C11.4792 6.60348 11.5576 6.5878 11.6307 6.55733C11.7039 6.52687 11.7702 6.48224 11.826 6.426C11.8822 6.37022 11.9269 6.30386 11.9573 6.23075C11.9878 6.15763 12.0035 6.07921 12.0035 6C12.0035 5.92079 11.9878 5.84237 11.9573 5.76925C11.9269 5.69614 11.8822 5.62978 11.826 5.574L9.426 3.174Z" fill="black"/>
</svg>
