<svg width="19" height="18" viewBox="0 0 19 18" fill="none" xmlns="http://www.w3.org/2000/svg">
<path d="M3.02384 14.4594H6.77373C6.89013 14.4601 7.00551 14.4378 7.11327 14.3938C7.22102 14.3497 7.31903 14.2849 7.40167 14.2029L13.5218 8.07396L16.0335 5.6153C16.1164 5.53308 16.1822 5.43527 16.2271 5.32749C16.272 5.21972 16.2951 5.10412 16.2951 4.98737C16.2951 4.87062 16.272 4.75502 16.2271 4.64724C16.1822 4.53947 16.1164 4.44165 16.0335 4.35944L12.2836 0.565318C12.2014 0.482424 12.1036 0.416629 11.9958 0.371728C11.888 0.326828 11.7724 0.303711 11.6557 0.303711C11.5389 0.303711 11.4233 0.326828 11.3156 0.371728C11.2078 0.416629 11.11 0.482424 11.0277 0.565318L8.53371 3.0682L2.3959 9.19716C2.31394 9.2798 2.24909 9.37781 2.20507 9.48556C2.16106 9.59332 2.13875 9.7087 2.13943 9.82509V13.575C2.13943 13.8096 2.2326 14.0345 2.39846 14.2004C2.56432 14.3662 2.78928 14.4594 3.02384 14.4594ZM11.6557 2.44027L14.1586 4.94315L12.9027 6.19901L10.3998 3.69613L11.6557 2.44027ZM3.90825 10.1877L9.1528 4.94315L11.6557 7.44603L6.41113 12.6906H3.90825V10.1877ZM17.1744 16.2282H1.25502C1.02046 16.2282 0.795502 16.3214 0.629643 16.4873C0.463784 16.6531 0.370605 16.8781 0.370605 17.1126C0.370605 17.3472 0.463784 17.5721 0.629643 17.738C0.795502 17.9039 1.02046 17.997 1.25502 17.997H17.1744C17.409 17.997 17.6339 17.9039 17.7998 17.738C17.9656 17.5721 18.0588 17.3472 18.0588 17.1126C18.0588 16.8781 17.9656 16.6531 17.7998 16.4873C17.6339 16.3214 17.409 16.2282 17.1744 16.2282Z" fill="#C5CEE0"/>
</svg>
