<svg width="16" height="15" viewBox="0 0 16 15" fill="none" xmlns="http://www.w3.org/2000/svg">
<path d="M15 2H10V3C10.2652 3 10.5196 3.10536 10.7071 3.29289C10.8946 3.48043 11 3.73478 11 4C11 4.26522 10.8946 4.51957 10.7071 4.70711C10.5196 4.89464 10.2652 5 10 5H6C5.73478 5 5.48043 4.89464 5.29289 4.70711C5.10536 4.51957 5 4.26522 5 4C5 3.73478 5.10536 3.48043 5.29289 3.29289C5.48043 3.10536 5.73478 3 6 3V2H1C0.734784 2 0.48043 2.10536 0.292893 2.29289C0.105357 2.48043 0 2.73478 0 3L0 14C0 14.2652 0.105357 14.5196 0.292893 14.7071C0.48043 14.8946 0.734784 15 1 15H15C15.2652 15 15.5196 14.8946 15.7071 14.7071C15.8946 14.5196 16 14.2652 16 14V3C16 2.73478 15.8946 2.48043 15.7071 2.29289C15.5196 2.10536 15.2652 2 15 2ZM7.5 7H13.583C13.7156 7 13.8428 7.05268 13.9366 7.14645C14.0303 7.24021 14.083 7.36739 14.083 7.5C14.083 7.63261 14.0303 7.75979 13.9366 7.85355C13.8428 7.94732 13.7156 8 13.583 8H7.5C7.36739 8 7.24021 7.94732 7.14645 7.85355C7.05268 7.75979 7 7.63261 7 7.5C7 7.36739 7.05268 7.24021 7.14645 7.14645C7.24021 7.05268 7.36739 7 7.5 7ZM7.5 9H13.583C13.7156 9 13.8428 9.05268 13.9366 9.14645C14.0303 9.24021 14.083 9.36739 14.083 9.5C14.083 9.63261 14.0303 9.75979 13.9366 9.85355C13.8428 9.94732 13.7156 10 13.583 10H7.5C7.36739 10 7.24021 9.94732 7.14645 9.85355C7.05268 9.75979 7 9.63261 7 9.5C7 9.36739 7.05268 9.24021 7.14645 9.14645C7.24021 9.05268 7.36739 9 7.5 9ZM7.5 11H13.583C13.7156 11 13.8428 11.0527 13.9366 11.1464C14.0303 11.2402 14.083 11.3674 14.083 11.5C14.083 11.6326 14.0303 11.7598 13.9366 11.8536C13.8428 11.9473 13.7156 12 13.583 12H7.5C7.36739 12 7.24021 11.9473 7.14645 11.8536C7.05268 11.7598 7 11.6326 7 11.5C7 11.3674 7.05268 11.2402 7.14645 11.1464C7.24021 11.0527 7.36739 11 7.5 11ZM6 11.549C6 13.013 2.047 13.013 2.047 11.549C2.047 10.085 2.932 8.899 4.023 8.899C5.115 8.899 6 10.085 6 11.549ZM5.206 7.208C5.206 7.52845 5.0787 7.83577 4.85211 8.06236C4.62552 8.28895 4.3182 8.41625 3.99775 8.41625C3.6773 8.41625 3.36998 8.28895 3.14339 8.06236C2.9168 7.83577 2.7895 7.52845 2.7895 7.208C2.7895 6.88755 2.9168 6.58023 3.14339 6.35364C3.36998 6.12705 3.6773 5.99975 3.99775 5.99975C4.3182 5.99975 4.62552 6.12705 4.85211 6.35364C5.0787 6.58023 5.206 6.88755 5.206 7.208ZM7 0H9V4H7V0Z" fill="black"/>
<rect x="6.5625" y="8.4375" width="8.4375" height="3.75" fill="black"/>
</svg>
